lc = 5.e-1;
Point(1) = {1,1,-1,lc};
Point(2) = {-1,1,-1,lc};
Point(3) = {-1,-1,-1,lc};
Point(4) = {1,-1,-1,lc};
Point(5) = {1,1,1,lc};
Point(6) = {-1,1,1,lc};
Point(7) = {-1,-1,1,lc};
Point(8) = {1,-1,1,lc};
Line(1) = {1,2};
Line(2) = {2,3};
Line(3) = {3,4};
Line(4) = {4,1};
Line(5) = {5,6};
Line(6) = {6,7};
Line(7) = {7,8};
Line(8) = {8,5};
Line(9) = {1,5};
Line(10) = {2,6};
Line(11) = {3,7};
Line(12) = {4,8};
Line Loop(1) = {1,2,3,4};
Plane Surface(1) = {1};
Line Loop(2) = {1,10,-5,-9};
Plane Surface(2) = {2};
Line Loop(3) = {2,11,-6,-10};
Plane Surface(3) = {3};
Line Loop(4) = {3,12,-7,-11};
Plane Surface(4) = {4};
Line Loop(5) = {4,9,-8,-12};
Plane Surface(5) = {5};
Line Loop(6) = {5,6,7,8};
Plane Surface(6) = {6};
Surface Loop(1) = {-1,2,3,4,5,6};
Volume (1) = {1};
Physical Volume("domain") = {1};
Physical Surface("znegative") = {1};
Physical Surface("ypositive") = {2};
Physical Surface("xnegative") = {3};
Physical Surface("ynegative") = {4};
Physical Surface("xpositive") = {5};
Physical Surface("zpositive") = {6};
